<svg width="296" height="75" viewBox="0 0 296 75" fill="none" xmlns="http://www.w3.org/2000/svg">
<rect width="296" height="75" rx="11" fill="white"/>
<path d="M45.5674 11.0741V48.6559C45.5674 50.3855 45.2218 52.0163 44.5307 53.5482C43.889 55.0308 43.0004 56.3403 41.865 57.4769C40.7296 58.6135 39.3968 59.5277 37.8665 60.2196C36.3856 60.862 34.7812 61.1832 33.0535 61.1832H27.5V47.2476C28.043 47.2476 28.5613 47.2476 29.055 47.2476C29.598 47.1981 30.0423 47.0993 30.3878 46.951C30.7827 46.8028 31.0789 46.5557 31.2764 46.2098C31.5232 45.8145 31.6466 45.2462 31.6466 44.5049V11.0741H45.5674Z" fill="black"/>
<path d="M66.5341 27.5301H52.6874V11.0741H66.5341V27.5301ZM91.5618 44.579C91.5618 45.3203 91.6605 45.8886 91.858 46.2839C92.1048 46.6298 92.4257 46.8769 92.8206 47.0252C93.2155 47.1734 93.6598 47.2476 94.1534 47.2476C94.6964 47.2476 95.2395 47.2476 95.7825 47.2476V61.1832H90.229C88.5012 61.1832 86.8722 60.862 85.3419 60.2196C83.861 59.5277 82.5528 58.6135 81.4174 57.4769C80.2821 56.3403 79.3688 55.0308 78.6777 53.5482C78.036 52.0163 77.7151 50.3855 77.7151 48.6559V43.0965H66.5341V61.1832H52.6874V43.0965H48.4667V29.1608H77.7151V11.0741H91.5618V44.579Z" fill="black"/>
<path d="M118.134 61.1832H98.7333V47.2476H102.88V27.7524C102.88 27.0112 102.757 26.4676 102.51 26.1217C102.312 25.7263 102.016 25.4545 101.621 25.3063C101.276 25.1086 100.831 25.0098 100.288 25.0098C99.7947 25.0098 99.2763 25.0098 98.7333 25.0098V11.0741H102.88C105.941 11.0741 108.384 11.5436 110.211 12.4825C112.086 13.372 113.493 14.6322 114.431 16.2629C115.418 17.8937 116.06 19.821 116.356 22.0448C116.653 24.2191 116.801 26.5911 116.801 29.1608V47.2476H118.134V61.1832ZM133.831 64H119.911V47.2476L119.985 22.6378H133.905L133.831 47.2476V64ZM154.861 25.0098C154.318 25.0098 153.775 25.0098 153.232 25.0098C152.738 25.0098 152.294 25.1086 151.899 25.3063C151.553 25.4545 151.257 25.7263 151.01 26.1217C150.813 26.4676 150.714 27.0112 150.714 27.7524V47.2476H154.861V61.1832H135.757V47.2476H136.793V29.1608C136.793 26.1958 136.966 23.6014 137.312 21.3776C137.706 19.1044 138.447 17.2266 139.533 15.7441C140.619 14.2121 142.149 13.0508 144.124 12.2601C146.148 11.4695 148.789 11.0741 152.047 11.0741H154.861V25.0098Z" fill="black"/>
<path d="M176.378 11.0741V48.6559C176.378 50.3855 176.032 52.0163 175.341 53.5482C174.7 55.0308 173.811 56.3403 172.676 57.4769C171.54 58.6135 170.207 59.5277 168.677 60.2196C167.196 60.862 165.592 61.1832 163.864 61.1832H158.311V47.2476C158.854 47.2476 159.372 47.2476 159.866 47.2476C160.409 47.1981 160.853 47.0993 161.199 46.951C161.593 46.8028 161.89 46.5557 162.087 46.2098C162.334 45.8145 162.457 45.2462 162.457 44.5049V11.0741H176.378Z" fill="black"/>
<path d="M197.567 43.0965V61.1832H183.646V43.0965H179.5V29.235H183.646V26.5664H197.567V30.6434H208.674V25.0098H179.5V11.1483H222.521V43.0965H197.567ZM222.521 44.8014V48.7301C222.521 50.4597 222.175 52.0904 221.484 53.6224C220.842 55.1049 219.954 56.4144 218.818 57.551C217.683 58.6382 216.35 59.5277 214.82 60.2196C213.339 60.862 211.734 61.1832 210.007 61.1832H199.344V47.3217H208.674V44.8014H222.521Z" fill="black"/>
<path d="M241.769 60.9608C245.027 60.5655 248.038 59.6019 250.803 58.0699C253.567 56.538 255.961 54.6107 257.985 52.2881C259.96 49.9161 261.515 47.2228 262.65 44.2084C263.786 41.1939 264.353 38.0065 264.353 34.6462V26.3441H268.5V11H250.433V25.0098C250.433 27.1347 250.482 29.3585 250.581 31.6811C250.63 33.9543 250.433 36.1287 249.988 38.2042C249.544 40.2303 248.73 42.034 247.545 43.6154C246.311 45.1473 244.386 46.2098 241.769 46.8028V60.9608ZM225.479 11V61.1832L239.4 61.1091L239.326 11H225.479Z" fill="black"/>
</svg>
